<svg width="48" height="48" viewBox="0 0 48 48" fill="none" xmlns="http://www.w3.org/2000/svg">
<mask id="mask0_2453_84" style="mask-type:alpha" maskUnits="userSpaceOnUse" x="0" y="0" width="48" height="48">
<rect width="48" height="48" fill="#D9D9D9"/>
</mask>
<g mask="url(#mask0_2453_84)">
<path d="M35.1369 42.5325L21.8694 29.1935C21.1404 29.4412 20.4225 29.6343 19.7159 29.773C19.0092 29.9113 18.2335 29.9805 17.3889 29.9805C13.9645 29.9805 11.0584 28.7852 8.67037 26.3945C6.2827 24.0038 5.08887 21.1158 5.08887 17.7305C5.08887 16.6595 5.24837 15.573 5.56737 14.471C5.88637 13.3687 6.30003 12.371 6.80837 11.478L14.2094 18.8695L18.7999 14.5695L11.2084 6.978C12.0534 6.473 13.0354 6.04716 14.1544 5.7005C15.273 5.35383 16.3512 5.1805 17.3889 5.1805C20.8672 5.1805 23.8237 6.40066 26.2584 8.841C28.6934 11.281 29.9109 14.2442 29.9109 17.7305C29.9109 18.4965 29.8417 19.2478 29.7034 19.9845C29.5647 20.7208 29.3715 21.4723 29.1239 22.239L42.4414 35.4785C42.9397 35.9868 43.1889 36.5833 43.1889 37.268C43.1889 37.9523 42.9397 38.5405 42.4414 39.0325L38.6414 42.5325C38.157 43.0122 37.5717 43.252 36.8854 43.252C36.1994 43.252 35.6165 43.0122 35.1369 42.5325ZM36.9889 39.2305L38.9889 37.2305L24.6889 22.9305C25.2222 22.2305 25.6222 21.4055 25.8889 20.4555C26.1555 19.5055 26.2889 18.5972 26.2889 17.7305C26.2889 15.2305 25.3639 13.1138 23.5139 11.3805C21.6639 9.64716 19.5555 8.76383 17.1889 8.7305L21.9214 13.563C22.3157 13.971 22.5045 14.4552 22.4879 15.0155C22.4712 15.5762 22.2657 16.0537 21.8714 16.448L15.9564 21.963C15.5274 22.3427 15.0384 22.5325 14.4894 22.5325C13.94 22.5325 13.484 22.3427 13.1214 21.963L8.58887 17.4805C8.68887 20.0472 9.60003 22.1638 11.3224 23.8305C13.0447 25.4972 15.0669 26.3305 17.3889 26.3305C18.2222 26.3305 19.1055 26.1972 20.0389 25.9305C20.9722 25.6638 21.7889 25.2638 22.4889 24.7305L36.9889 39.2305Z" fill="black"/>
</g>
</svg>
